<mxfile host="65bd71144e">
    <diagram id="ZVCSGb6iaaMAxLYf4mVZ" name="Page-1">
        <mxGraphModel dx="1774" dy="916" grid="1" gridSize="10" guides="1" tooltips="1" connect="1" arrows="1" fold="1" page="1" pageScale="1" pageWidth="850" pageHeight="1100" math="0" shadow="0">
            <root>
                <mxCell id="0"/>
                <mxCell id="1" parent="0"/>
                <mxCell id="8" value="Leverancier" style="swimlane;fontStyle=0;childLayout=stackLayout;horizontal=1;startSize=30;horizontalStack=0;resizeParent=1;resizeParentMax=0;resizeLast=0;collapsible=1;marginBottom=0;whiteSpace=wrap;html=1;" parent="1" vertex="1">
                    <mxGeometry x="20" y="105" width="160" height="230" as="geometry">
                        <mxRectangle x="30" y="10" width="100" height="30" as="alternateBounds"/>
                    </mxGeometry>
                </mxCell>
                <mxCell id="9" value="&lt;ul&gt;&lt;li&gt;leverancier ID &lt;b&gt;PK&lt;/b&gt;&lt;/li&gt;&lt;li&gt;naam&lt;/li&gt;&lt;li&gt;address ID &lt;b&gt;FK&lt;/b&gt;&lt;/li&gt;&lt;li&gt;postbus ID &lt;b&gt;FK&lt;/b&gt;&lt;/li&gt;&lt;li&gt;email&lt;/li&gt;&lt;li&gt;mobiel telefoonnummer&lt;/li&gt;&lt;li&gt;vast telefoonnummer&lt;/li&gt;&lt;/ul&gt;" style="text;strokeColor=none;fillColor=none;align=left;verticalAlign=top;spacingLeft=4;spacingRight=4;overflow=hidden;points=[[0,0.5],[1,0.5]];portConstraint=eastwest;rotatable=0;whiteSpace=wrap;html=1;" parent="8" vertex="1">
                    <mxGeometry y="30" width="160" height="200" as="geometry"/>
                </mxCell>
                <mxCell id="10" value="Adress" style="swimlane;fontStyle=0;childLayout=stackLayout;horizontal=1;startSize=30;horizontalStack=0;resizeParent=1;resizeParentMax=0;resizeLast=0;collapsible=1;marginBottom=0;whiteSpace=wrap;html=1;" vertex="1" parent="1">
                    <mxGeometry x="370" y="201" width="160" height="120" as="geometry"/>
                </mxCell>
                <mxCell id="11" value="&lt;ul&gt;&lt;li&gt;Address ID &lt;b&gt;PK&lt;/b&gt;&lt;/li&gt;&lt;li&gt;nummer&lt;/li&gt;&lt;li&gt;postcode ID &lt;b&gt;FK&lt;/b&gt;&lt;/li&gt;&lt;/ul&gt;" style="text;strokeColor=none;fillColor=none;align=left;verticalAlign=top;spacingLeft=4;spacingRight=4;overflow=hidden;points=[[0,0.5],[1,0.5]];portConstraint=eastwest;rotatable=0;whiteSpace=wrap;html=1;" vertex="1" parent="10">
                    <mxGeometry y="30" width="160" height="90" as="geometry"/>
                </mxCell>
                <mxCell id="16" value="rubriek" style="swimlane;fontStyle=0;childLayout=stackLayout;horizontal=1;startSize=30;horizontalStack=0;resizeParent=1;resizeParentMax=0;resizeLast=0;collapsible=1;marginBottom=0;whiteSpace=wrap;html=1;" vertex="1" parent="1">
                    <mxGeometry x="610" y="70" width="200" height="130" as="geometry"/>
                </mxCell>
                <mxCell id="17" value="&lt;ul&gt;&lt;li&gt;Rubriek_ID &lt;b&gt;P&lt;/b&gt;&lt;b style=&quot;color: rgb(63, 63, 63); scrollbar-color: rgb(226, 226, 226) rgb(251, 251, 251);&quot;&gt;K&lt;/b&gt;&lt;/li&gt;&lt;li&gt;Naam&lt;/li&gt;&lt;li&gt;Hoodrubriek&lt;/li&gt;&lt;/ul&gt;" style="text;strokeColor=none;fillColor=none;align=left;verticalAlign=top;spacingLeft=4;spacingRight=4;overflow=hidden;points=[[0,0.5],[1,0.5]];portConstraint=eastwest;rotatable=0;whiteSpace=wrap;html=1;" vertex="1" parent="16">
                    <mxGeometry y="30" width="200" height="100" as="geometry"/>
                </mxCell>
                <mxCell id="18" value="Leverancier_rubriek" style="swimlane;fontStyle=0;childLayout=stackLayout;horizontal=1;startSize=30;horizontalStack=0;resizeParent=1;resizeParentMax=0;resizeLast=0;collapsible=1;marginBottom=0;whiteSpace=wrap;html=1;" vertex="1" parent="1">
                    <mxGeometry x="370" y="70" width="200" height="100" as="geometry"/>
                </mxCell>
                <mxCell id="19" value="&lt;ul&gt;&lt;li&gt;Rubriek_ID&amp;nbsp;&lt;b style=&quot;color: rgb(63, 63, 63); scrollbar-color: rgb(226, 226, 226) rgb(251, 251, 251);&quot;&gt;FK&lt;/b&gt;&lt;/li&gt;&lt;li&gt;Leverancier_ID&amp;nbsp;&lt;b style=&quot;color: rgb(63, 63, 63); scrollbar-color: rgb(226, 226, 226) rgb(251, 251, 251);&quot;&gt;FK&lt;/b&gt;&lt;/li&gt;&lt;/ul&gt;" style="text;strokeColor=none;fillColor=none;align=left;verticalAlign=top;spacingLeft=4;spacingRight=4;overflow=hidden;points=[[0,0.5],[1,0.5]];portConstraint=eastwest;rotatable=0;whiteSpace=wrap;html=1;" vertex="1" parent="18">
                    <mxGeometry y="30" width="200" height="70" as="geometry"/>
                </mxCell>
                <mxCell id="21" value="Postbus" style="swimlane;fontStyle=0;childLayout=stackLayout;horizontal=1;startSize=30;horizontalStack=0;resizeParent=1;resizeParentMax=0;resizeLast=0;collapsible=1;marginBottom=0;whiteSpace=wrap;html=1;" vertex="1" parent="1">
                    <mxGeometry x="370" y="346" width="160" height="120" as="geometry"/>
                </mxCell>
                <mxCell id="22" value="&lt;ul&gt;&lt;li&gt;Postbus ID&amp;nbsp;&lt;b style=&quot;color: rgb(63, 63, 63); scrollbar-color: rgb(226, 226, 226) rgb(251, 251, 251);&quot;&gt;PK&lt;/b&gt;&lt;/li&gt;&lt;li&gt;Postbus NR&lt;/li&gt;&lt;li&gt;Postcode ID&amp;nbsp;&lt;b style=&quot;color: rgb(63, 63, 63); scrollbar-color: rgb(226, 226, 226) rgb(251, 251, 251);&quot;&gt;FK&lt;/b&gt;&lt;/li&gt;&lt;/ul&gt;" style="text;strokeColor=none;fillColor=none;align=left;verticalAlign=top;spacingLeft=4;spacingRight=4;overflow=hidden;points=[[0,0.5],[1,0.5]];portConstraint=eastwest;rotatable=0;whiteSpace=wrap;html=1;" vertex="1" parent="21">
                    <mxGeometry y="30" width="160" height="90" as="geometry"/>
                </mxCell>
                <mxCell id="23" value="Contactperson" style="swimlane;fontStyle=0;childLayout=stackLayout;horizontal=1;startSize=30;horizontalStack=0;resizeParent=1;resizeParentMax=0;resizeLast=0;collapsible=1;marginBottom=0;whiteSpace=wrap;html=1;" vertex="1" parent="1">
                    <mxGeometry x="30" y="660" width="160" height="170" as="geometry"/>
                </mxCell>
                <mxCell id="24" value="&lt;ul&gt;&lt;li&gt;Contactpersoon &lt;b&gt;ID&lt;/b&gt; PK&lt;/li&gt;&lt;li&gt;leverancier ID &lt;b&gt;FK&lt;/b&gt;&lt;/li&gt;&lt;li&gt;Naam&lt;/li&gt;&lt;li&gt;Email&lt;/li&gt;&lt;li&gt;telefoonnummer&lt;/li&gt;&lt;/ul&gt;" style="text;strokeColor=none;fillColor=none;align=left;verticalAlign=top;spacingLeft=4;spacingRight=4;overflow=hidden;points=[[0,0.5],[1,0.5]];portConstraint=eastwest;rotatable=0;whiteSpace=wrap;html=1;" vertex="1" parent="23">
                    <mxGeometry y="30" width="160" height="140" as="geometry"/>
                </mxCell>
                <mxCell id="26" style="edgeStyle=orthogonalEdgeStyle;html=1;exitX=1.033;exitY=0.102;exitDx=0;exitDy=0;exitPerimeter=0;entryX=0;entryY=0.5;entryDx=0;entryDy=0;elbow=vertical;endArrow=ERoneToMany;endFill=0;" edge="1" parent="1" source="9" target="19">
                    <mxGeometry relative="1" as="geometry">
                        <mxPoint x="170" y="140" as="sourcePoint"/>
                        <mxPoint x="331" y="155" as="targetPoint"/>
                    </mxGeometry>
                </mxCell>
                <mxCell id="27" style="edgeStyle=orthogonalEdgeStyle;html=1;exitX=1;exitY=0.5;exitDx=0;exitDy=0;entryX=0.014;entryY=0.346;entryDx=0;entryDy=0;entryPerimeter=0;elbow=vertical;endArrow=none;endFill=0;startArrow=ERoneToMany;startFill=0;" edge="1" parent="1" source="19" target="17">
                    <mxGeometry relative="1" as="geometry"/>
                </mxCell>
                <mxCell id="28" style="edgeStyle=orthogonalEdgeStyle;html=1;entryX=0.01;entryY=0.201;entryDx=0;entryDy=0;entryPerimeter=0;elbow=vertical;endArrow=ERone;endFill=0;startArrow=ERone;startFill=0;" edge="1" parent="1" target="11">
                    <mxGeometry relative="1" as="geometry">
                        <mxPoint x="180" y="213" as="sourcePoint"/>
                        <Array as="points">
                            <mxPoint x="320" y="213"/>
                            <mxPoint x="320" y="249"/>
                        </Array>
                    </mxGeometry>
                </mxCell>
                <mxCell id="33" value="Postcode" style="swimlane;fontStyle=0;childLayout=stackLayout;horizontal=1;startSize=30;horizontalStack=0;resizeParent=1;resizeParentMax=0;resizeLast=0;collapsible=1;marginBottom=0;whiteSpace=wrap;html=1;" vertex="1" parent="1">
                    <mxGeometry x="640" y="230" width="160" height="180" as="geometry"/>
                </mxCell>
                <mxCell id="34" value="&lt;ul&gt;&lt;li&gt;Postcode ID&amp;nbsp;&lt;b style=&quot;color: rgb(63, 63, 63); scrollbar-color: rgb(226, 226, 226) rgb(251, 251, 251);&quot;&gt;PK&lt;/b&gt;&lt;/li&gt;&lt;li&gt;code&lt;/li&gt;&lt;li&gt;longitudinale loc&lt;/li&gt;&lt;li&gt;laterale loc&lt;/li&gt;&lt;li&gt;straatnaam&lt;/li&gt;&lt;li&gt;woonplaats_ID&amp;nbsp;&lt;b style=&quot;color: rgb(63, 63, 63); scrollbar-color: rgb(226, 226, 226) rgb(251, 251, 251);&quot;&gt;FK&lt;/b&gt;&lt;/li&gt;&lt;/ul&gt;" style="text;strokeColor=none;fillColor=none;align=left;verticalAlign=top;spacingLeft=4;spacingRight=4;overflow=hidden;points=[[0,0.5],[1,0.5]];portConstraint=eastwest;rotatable=0;whiteSpace=wrap;html=1;" vertex="1" parent="33">
                    <mxGeometry y="30" width="160" height="150" as="geometry"/>
                </mxCell>
                <mxCell id="35" value="" style="html=1;entryX=-0.012;entryY=0.22;entryDx=0;entryDy=0;entryPerimeter=0;endArrow=ERone;endFill=0;startArrow=ERmany;startFill=0;exitX=1.008;exitY=0.711;exitDx=0;exitDy=0;exitPerimeter=0;" edge="1" parent="1" source="11" target="34">
                    <mxGeometry relative="1" as="geometry">
                        <mxPoint x="530" y="304" as="sourcePoint"/>
                    </mxGeometry>
                </mxCell>
                <mxCell id="36" style="edgeStyle=orthogonalEdgeStyle;html=1;exitX=0.996;exitY=0.796;exitDx=0;exitDy=0;exitPerimeter=0;endArrow=ERone;endFill=0;startArrow=ERmany;startFill=0;" edge="1" parent="1" source="22">
                    <mxGeometry relative="1" as="geometry">
                        <mxPoint x="640" y="309" as="targetPoint"/>
                        <Array as="points">
                            <mxPoint x="550" y="448"/>
                            <mxPoint x="550" y="309"/>
                        </Array>
                    </mxGeometry>
                </mxCell>
                <mxCell id="39" value="" style="edgeStyle=none;html=1;endArrow=ERmany;endFill=0;startArrow=ERone;startFill=0;" edge="1" parent="1" source="37" target="34">
                    <mxGeometry relative="1" as="geometry"/>
                </mxCell>
                <mxCell id="37" value="Woonplaats" style="swimlane;fontStyle=0;childLayout=stackLayout;horizontal=1;startSize=30;horizontalStack=0;resizeParent=1;resizeParentMax=0;resizeLast=0;collapsible=1;marginBottom=0;whiteSpace=wrap;html=1;" vertex="1" parent="1">
                    <mxGeometry x="640" y="455" width="160" height="130" as="geometry"/>
                </mxCell>
                <mxCell id="38" value="&lt;ul&gt;&lt;li&gt;Woonplaats ID&amp;nbsp;&lt;b style=&quot;color: rgb(63, 63, 63); scrollbar-color: rgb(226, 226, 226) rgb(251, 251, 251);&quot;&gt;PK&lt;/b&gt;&lt;/li&gt;&lt;li&gt;Plaatsnaam&lt;/li&gt;&lt;li&gt;Gemeente ID&amp;nbsp;&lt;b style=&quot;color: rgb(63, 63, 63); scrollbar-color: rgb(226, 226, 226) rgb(251, 251, 251);&quot;&gt;FK&lt;/b&gt;&lt;/li&gt;&lt;/ul&gt;" style="text;strokeColor=none;fillColor=none;align=left;verticalAlign=top;spacingLeft=4;spacingRight=4;overflow=hidden;points=[[0,0.5],[1,0.5]];portConstraint=eastwest;rotatable=0;whiteSpace=wrap;html=1;" vertex="1" parent="37">
                    <mxGeometry y="30" width="160" height="100" as="geometry"/>
                </mxCell>
                <mxCell id="42" value="" style="edgeStyle=none;html=1;startArrow=ERone;startFill=0;endArrow=ERmany;endFill=0;" edge="1" parent="1" source="40" target="38">
                    <mxGeometry relative="1" as="geometry"/>
                </mxCell>
                <mxCell id="40" value="Gemeente" style="swimlane;fontStyle=0;childLayout=stackLayout;horizontal=1;startSize=30;horizontalStack=0;resizeParent=1;resizeParentMax=0;resizeLast=0;collapsible=1;marginBottom=0;whiteSpace=wrap;html=1;" vertex="1" parent="1">
                    <mxGeometry x="640" y="625" width="160" height="120" as="geometry"/>
                </mxCell>
                <mxCell id="41" value="&lt;ul&gt;&lt;li&gt;Gemeente ID&amp;nbsp;&lt;b style=&quot;color: rgb(63, 63, 63); scrollbar-color: rgb(226, 226, 226) rgb(251, 251, 251);&quot;&gt;PK&lt;/b&gt;&lt;/li&gt;&lt;li&gt;Naam&lt;/li&gt;&lt;li&gt;Provincie ID&amp;nbsp;&lt;b style=&quot;color: rgb(63, 63, 63); scrollbar-color: rgb(226, 226, 226) rgb(251, 251, 251);&quot;&gt;FK&lt;/b&gt;&lt;/li&gt;&lt;/ul&gt;" style="text;strokeColor=none;fillColor=none;align=left;verticalAlign=top;spacingLeft=4;spacingRight=4;overflow=hidden;points=[[0,0.5],[1,0.5]];portConstraint=eastwest;rotatable=0;whiteSpace=wrap;html=1;" vertex="1" parent="40">
                    <mxGeometry y="30" width="160" height="90" as="geometry"/>
                </mxCell>
                <mxCell id="45" value="" style="edgeStyle=none;html=1;endArrow=ERmany;endFill=0;startArrow=ERone;startFill=0;" edge="1" parent="1" source="43" target="41">
                    <mxGeometry relative="1" as="geometry"/>
                </mxCell>
                <mxCell id="43" value="Provincie" style="swimlane;fontStyle=0;childLayout=stackLayout;horizontal=1;startSize=30;horizontalStack=0;resizeParent=1;resizeParentMax=0;resizeLast=0;collapsible=1;marginBottom=0;whiteSpace=wrap;html=1;" vertex="1" parent="1">
                    <mxGeometry x="640" y="785" width="160" height="120" as="geometry"/>
                </mxCell>
                <mxCell id="44" value="&lt;ul&gt;&lt;li&gt;Provincie ID&amp;nbsp;&lt;b style=&quot;color: rgb(63, 63, 63); scrollbar-color: rgb(226, 226, 226) rgb(251, 251, 251);&quot;&gt;PK&lt;/b&gt;&lt;/li&gt;&lt;li&gt;Naam&lt;/li&gt;&lt;li&gt;Land ID&amp;nbsp;&lt;b style=&quot;color: rgb(63, 63, 63); scrollbar-color: rgb(226, 226, 226) rgb(251, 251, 251);&quot;&gt;FK&lt;/b&gt;&lt;/li&gt;&lt;/ul&gt;" style="text;strokeColor=none;fillColor=none;align=left;verticalAlign=top;spacingLeft=4;spacingRight=4;overflow=hidden;points=[[0,0.5],[1,0.5]];portConstraint=eastwest;rotatable=0;whiteSpace=wrap;html=1;" vertex="1" parent="43">
                    <mxGeometry y="30" width="160" height="90" as="geometry"/>
                </mxCell>
                <mxCell id="46" value="Land" style="swimlane;fontStyle=0;childLayout=stackLayout;horizontal=1;startSize=30;horizontalStack=0;resizeParent=1;resizeParentMax=0;resizeLast=0;collapsible=1;marginBottom=0;whiteSpace=wrap;html=1;" vertex="1" parent="1">
                    <mxGeometry x="640" y="945" width="160" height="90" as="geometry"/>
                </mxCell>
                <mxCell id="47" value="&lt;ul&gt;&lt;li&gt;land ID&amp;nbsp;&lt;b style=&quot;color: rgb(63, 63, 63); scrollbar-color: rgb(226, 226, 226) rgb(251, 251, 251);&quot;&gt;PK&lt;/b&gt;&lt;/li&gt;&lt;li&gt;Naam&lt;/li&gt;&lt;/ul&gt;" style="text;strokeColor=none;fillColor=none;align=left;verticalAlign=top;spacingLeft=4;spacingRight=4;overflow=hidden;points=[[0,0.5],[1,0.5]];portConstraint=eastwest;rotatable=0;whiteSpace=wrap;html=1;" vertex="1" parent="46">
                    <mxGeometry y="30" width="160" height="60" as="geometry"/>
                </mxCell>
                <mxCell id="48" value="" style="edgeStyle=none;html=1;endArrow=ERone;endFill=0;startArrow=ERmany;startFill=0;" edge="1" parent="1" source="44" target="46">
                    <mxGeometry relative="1" as="geometry"/>
                </mxCell>
                <mxCell id="49" style="edgeStyle=orthogonalEdgeStyle;html=1;entryX=0.007;entryY=0.341;entryDx=0;entryDy=0;entryPerimeter=0;startArrow=ERzeroToOne;startFill=0;endArrow=ERone;endFill=0;" edge="1" parent="1" target="22">
                    <mxGeometry relative="1" as="geometry">
                        <mxPoint x="180" y="180" as="sourcePoint"/>
                        <Array as="points">
                            <mxPoint x="290" y="223"/>
                            <mxPoint x="290" y="407"/>
                        </Array>
                    </mxGeometry>
                </mxCell>
                <mxCell id="50" value="Contactpersoon_contact_afdeling" style="swimlane;fontStyle=0;childLayout=stackLayout;horizontal=1;startSize=30;horizontalStack=0;resizeParent=1;resizeParentMax=0;resizeLast=0;collapsible=1;marginBottom=0;whiteSpace=wrap;html=1;" vertex="1" parent="1">
                    <mxGeometry x="285" y="770" width="190" height="140" as="geometry"/>
                </mxCell>
                <mxCell id="51" value="&lt;ul&gt;&lt;li&gt;id &lt;b&gt;PK&lt;/b&gt;&lt;/li&gt;&lt;li&gt;contactpersoon ID &lt;b&gt;FK&lt;/b&gt;&lt;/li&gt;&lt;li&gt;Afdeling ID &lt;b&gt;FK&lt;/b&gt;&lt;/li&gt;&lt;li&gt;Taak ID &lt;b&gt;FK&lt;/b&gt;&lt;/li&gt;&lt;/ul&gt;" style="text;strokeColor=none;fillColor=none;align=left;verticalAlign=top;spacingLeft=4;spacingRight=4;overflow=hidden;points=[[0,0.5],[1,0.5]];portConstraint=eastwest;rotatable=0;whiteSpace=wrap;html=1;" vertex="1" parent="50">
                    <mxGeometry y="30" width="190" height="110" as="geometry"/>
                </mxCell>
                <mxCell id="52" value="Afdeling" style="swimlane;fontStyle=0;childLayout=stackLayout;horizontal=1;startSize=30;horizontalStack=0;resizeParent=1;resizeParentMax=0;resizeLast=0;collapsible=1;marginBottom=0;whiteSpace=wrap;html=1;" vertex="1" parent="1">
                    <mxGeometry x="190" y="950" width="160" height="110" as="geometry"/>
                </mxCell>
                <mxCell id="53" value="&lt;ul&gt;&lt;li&gt;Afdeling ID &lt;b&gt;PK&lt;/b&gt;&lt;/li&gt;&lt;li&gt;Naam&lt;/li&gt;&lt;/ul&gt;" style="text;strokeColor=none;fillColor=none;align=left;verticalAlign=top;spacingLeft=4;spacingRight=4;overflow=hidden;points=[[0,0.5],[1,0.5]];portConstraint=eastwest;rotatable=0;whiteSpace=wrap;html=1;" vertex="1" parent="52">
                    <mxGeometry y="30" width="160" height="80" as="geometry"/>
                </mxCell>
                <mxCell id="54" value="Taak" style="swimlane;fontStyle=0;childLayout=stackLayout;horizontal=1;startSize=30;horizontalStack=0;resizeParent=1;resizeParentMax=0;resizeLast=0;collapsible=1;marginBottom=0;whiteSpace=wrap;html=1;" vertex="1" parent="1">
                    <mxGeometry x="420" y="950" width="160" height="110" as="geometry"/>
                </mxCell>
                <mxCell id="55" value="&lt;ul&gt;&lt;li&gt;Taak ID&amp;nbsp;&lt;b style=&quot;color: rgb(63, 63, 63); scrollbar-color: rgb(226, 226, 226) rgb(251, 251, 251);&quot;&gt;PK&lt;/b&gt;&lt;/li&gt;&lt;li&gt;naam&lt;/li&gt;&lt;/ul&gt;" style="text;strokeColor=none;fillColor=none;align=left;verticalAlign=top;spacingLeft=4;spacingRight=4;overflow=hidden;points=[[0,0.5],[1,0.5]];portConstraint=eastwest;rotatable=0;whiteSpace=wrap;html=1;" vertex="1" parent="54">
                    <mxGeometry y="30" width="160" height="80" as="geometry"/>
                </mxCell>
                <mxCell id="57" style="edgeStyle=orthogonalEdgeStyle;html=1;exitX=0.5;exitY=0;exitDx=0;exitDy=0;entryX=1.013;entryY=0.876;entryDx=0;entryDy=0;entryPerimeter=0;endArrow=ERmany;endFill=0;startArrow=ERone;startFill=0;" edge="1" parent="1" source="54" target="51">
                    <mxGeometry relative="1" as="geometry"/>
                </mxCell>
                <mxCell id="59" style="html=1;endArrow=ERone;endFill=0;startArrow=ERmany;startFill=0;edgeStyle=orthogonalEdgeStyle;exitX=0.998;exitY=0.174;exitDx=0;exitDy=0;exitPerimeter=0;entryX=1.001;entryY=0.071;entryDx=0;entryDy=0;entryPerimeter=0;" edge="1" parent="1" source="24" target="9">
                    <mxGeometry relative="1" as="geometry">
                        <mxPoint x="190" y="575" as="sourcePoint"/>
                        <mxPoint x="180" y="200" as="targetPoint"/>
                        <Array as="points">
                            <mxPoint x="220" y="714"/>
                            <mxPoint x="220" y="160"/>
                            <mxPoint x="179" y="160"/>
                            <mxPoint x="179" y="164"/>
                        </Array>
                    </mxGeometry>
                </mxCell>
                <mxCell id="62" style="edgeStyle=orthogonalEdgeStyle;html=1;exitX=0.5;exitY=0;exitDx=0;exitDy=0;entryX=-0.003;entryY=0.739;entryDx=0;entryDy=0;entryPerimeter=0;endArrow=ERmany;endFill=0;startArrow=ERone;startFill=0;" edge="1" parent="1" source="52" target="51">
                    <mxGeometry relative="1" as="geometry"/>
                </mxCell>
                <mxCell id="63" value="" style="edgeStyle=orthogonalEdgeStyle;html=1;exitX=0;exitY=0.5;exitDx=0;exitDy=0;entryX=1.008;entryY=0.263;entryDx=0;entryDy=0;entryPerimeter=0;endArrow=ERone;endFill=0;startArrow=ERmany;startFill=0;" edge="1" parent="1" source="51" target="24">
                    <mxGeometry relative="1" as="geometry">
                        <Array as="points">
                            <mxPoint x="238" y="855"/>
                            <mxPoint x="238" y="727"/>
                        </Array>
                    </mxGeometry>
                </mxCell>
                <mxCell id="70" value="" style="edgeStyle=none;html=1;endArrow=ERone;endFill=0;startArrow=ERmany;startFill=0;" edge="1" parent="1" source="65" target="9">
                    <mxGeometry relative="1" as="geometry"/>
                </mxCell>
                <mxCell id="65" value="Leverancier_eigenschappen" style="swimlane;fontStyle=0;childLayout=stackLayout;horizontal=1;startSize=30;horizontalStack=0;resizeParent=1;resizeParentMax=0;resizeLast=0;collapsible=1;marginBottom=0;whiteSpace=wrap;html=1;" vertex="1" parent="1">
                    <mxGeometry x="20" y="366" width="160" height="100" as="geometry">
                        <mxRectangle x="30" y="10" width="100" height="30" as="alternateBounds"/>
                    </mxGeometry>
                </mxCell>
                <mxCell id="66" value="&lt;ul&gt;&lt;li&gt;Leverancie ID &lt;b&gt;FK&lt;/b&gt;&lt;/li&gt;&lt;li&gt;Eigenschap ID &lt;b&gt;FK&lt;/b&gt;&lt;/li&gt;&lt;/ul&gt;" style="text;strokeColor=none;fillColor=none;align=left;verticalAlign=top;spacingLeft=4;spacingRight=4;overflow=hidden;points=[[0,0.5],[1,0.5]];portConstraint=eastwest;rotatable=0;whiteSpace=wrap;html=1;" vertex="1" parent="65">
                    <mxGeometry y="30" width="160" height="70" as="geometry"/>
                </mxCell>
                <mxCell id="69" value="" style="edgeStyle=none;html=1;endArrow=ERmany;endFill=0;startArrow=ERone;startFill=0;" edge="1" parent="1" source="67" target="66">
                    <mxGeometry relative="1" as="geometry"/>
                </mxCell>
                <mxCell id="67" value="Eigenschap" style="swimlane;fontStyle=0;childLayout=stackLayout;horizontal=1;startSize=30;horizontalStack=0;resizeParent=1;resizeParentMax=0;resizeLast=0;collapsible=1;marginBottom=0;whiteSpace=wrap;html=1;" vertex="1" parent="1">
                    <mxGeometry x="20" y="500" width="160" height="120" as="geometry">
                        <mxRectangle x="30" y="10" width="100" height="30" as="alternateBounds"/>
                    </mxGeometry>
                </mxCell>
                <mxCell id="68" value="&lt;ul&gt;&lt;li&gt;Eigenschap ID &lt;b&gt;PK&lt;/b&gt;&lt;/li&gt;&lt;li&gt;Eigenschap naam&lt;/li&gt;&lt;li&gt;Type&lt;/li&gt;&lt;/ul&gt;" style="text;strokeColor=none;fillColor=none;align=left;verticalAlign=top;spacingLeft=4;spacingRight=4;overflow=hidden;points=[[0,0.5],[1,0.5]];portConstraint=eastwest;rotatable=0;whiteSpace=wrap;html=1;" vertex="1" parent="67">
                    <mxGeometry y="30" width="160" height="90" as="geometry"/>
                </mxCell>
            </root>
        </mxGraphModel>
    </diagram>
</mxfile>